<svg id="visual" viewBox="0 0 900 450" width="900" height="450" xmlns="http://www.w3.org/2000/svg" xmlns:xlink="http://www.w3.org/1999/xlink" version="1.1"><rect x="0" y="0" width="900" height="450" fill="#ffffff"></rect><defs><linearGradient id="grad1_0" x1="50%" y1="100%" x2="100%" y2="0%"><stop offset="10%" stop-color="#139d7f" stop-opacity="1"></stop><stop offset="90%" stop-color="#139d7f" stop-opacity="1"></stop></linearGradient></defs><defs><linearGradient id="grad1_1" x1="50%" y1="100%" x2="100%" y2="0%"><stop offset="10%" stop-color="#139d7f" stop-opacity="1"></stop><stop offset="90%" stop-color="#64b69d" stop-opacity="1"></stop></linearGradient></defs><defs><linearGradient id="grad1_2" x1="50%" y1="100%" x2="100%" y2="0%"><stop offset="10%" stop-color="#9acebd" stop-opacity="1"></stop><stop offset="90%" stop-color="#64b69d" stop-opacity="1"></stop></linearGradient></defs><defs><linearGradient id="grad1_3" x1="50%" y1="100%" x2="100%" y2="0%"><stop offset="10%" stop-color="#9acebd" stop-opacity="1"></stop><stop offset="90%" stop-color="#cde7de" stop-opacity="1"></stop></linearGradient></defs><defs><linearGradient id="grad1_4" x1="50%" y1="100%" x2="100%" y2="0%"><stop offset="10%" stop-color="#ffffff" stop-opacity="1"></stop><stop offset="90%" stop-color="#cde7de" stop-opacity="1"></stop></linearGradient></defs><defs><linearGradient id="grad2_0" x1="0%" y1="100%" x2="50%" y2="0%"><stop offset="10%" stop-color="#139d7f" stop-opacity="1"></stop><stop offset="90%" stop-color="#139d7f" stop-opacity="1"></stop></linearGradient></defs><defs><linearGradient id="grad2_1" x1="0%" y1="100%" x2="50%" y2="0%"><stop offset="10%" stop-color="#64b69d" stop-opacity="1"></stop><stop offset="90%" stop-color="#139d7f" stop-opacity="1"></stop></linearGradient></defs><defs><linearGradient id="grad2_2" x1="0%" y1="100%" x2="50%" y2="0%"><stop offset="10%" stop-color="#64b69d" stop-opacity="1"></stop><stop offset="90%" stop-color="#9acebd" stop-opacity="1"></stop></linearGradient></defs><defs><linearGradient id="grad2_3" x1="0%" y1="100%" x2="50%" y2="0%"><stop offset="10%" stop-color="#cde7de" stop-opacity="1"></stop><stop offset="90%" stop-color="#9acebd" stop-opacity="1"></stop></linearGradient></defs><defs><linearGradient id="grad2_4" x1="0%" y1="100%" x2="50%" y2="0%"><stop offset="10%" stop-color="#cde7de" stop-opacity="1"></stop><stop offset="90%" stop-color="#ffffff" stop-opacity="1"></stop></linearGradient></defs><g transform="translate(900, 450)"><path d="M-202.5 0C-201.5 -17.9 -200.6 -35.7 -195.6 -52.4C-190.6 -69.1 -181.6 -84.6 -172.3 -99.5C-163 -114.4 -153.4 -128.9 -141.4 -141.4C-129.4 -154 -115 -164.6 -99.5 -172.3C-84 -180 -67.5 -184.8 -50.7 -189.3C-34 -193.9 -17 -198.2 0 -202.5L0 0Z" fill="#e6f3ee"></path><path d="M-162 0C-161.2 -14.3 -160.5 -28.6 -156.5 -41.9C-152.5 -55.3 -145.3 -67.6 -137.9 -79.6C-130.4 -91.6 -122.7 -103.1 -113.1 -113.1C-103.5 -123.2 -92 -131.7 -79.6 -137.9C-67.2 -144 -54 -147.8 -40.6 -151.5C-27.2 -155.1 -13.6 -158.5 0 -162L0 0Z" fill="#b3dacd"></path><path d="M-121.5 0C-120.9 -10.7 -120.3 -21.4 -117.4 -31.4C-114.4 -41.4 -109 -50.7 -103.4 -59.7C-97.8 -68.7 -92.1 -77.3 -84.9 -84.9C-77.6 -92.4 -69 -98.8 -59.7 -103.4C-50.4 -108 -40.5 -110.9 -30.4 -113.6C-20.4 -116.3 -10.2 -118.9 0 -121.5L0 0Z" fill="#7fc2ad"></path><path d="M-81 0C-80.6 -7.1 -80.2 -14.3 -78.2 -21C-76.2 -27.6 -72.7 -33.8 -68.9 -39.8C-65.2 -45.8 -61.4 -51.5 -56.6 -56.6C-51.8 -61.6 -46 -65.9 -39.8 -68.9C-33.6 -72 -27 -73.9 -20.3 -75.7C-13.6 -77.5 -6.8 -79.3 0 -81L0 0Z" fill="#44a98e"></path><path d="M-40.5 0C-40.3 -3.6 -40.1 -7.1 -39.1 -10.5C-38.1 -13.8 -36.3 -16.9 -34.5 -19.9C-32.6 -22.9 -30.7 -25.8 -28.3 -28.3C-25.9 -30.8 -23 -32.9 -19.9 -34.5C-16.8 -36 -13.5 -37 -10.1 -37.9C-6.8 -38.8 -3.4 -39.6 0 -40.5L0 0Z" fill="#139d7f"></path></g><g transform="translate(0, 0)"><path d="M202.5 0C196.9 16.7 191.4 33.4 186.4 50C181.5 66.5 177.2 82.8 169.7 98C162.3 113.2 151.8 127.2 140 140C128.2 152.8 115.2 164.5 100.5 174.1C85.8 183.7 69.4 191.2 52.4 195.6C35.4 200 17.7 201.2 0 202.5L0 0Z" fill="#e6f3ee"></path><path d="M162 0C157.5 13.4 153.1 26.7 149.1 40C145.2 53.2 141.7 66.3 135.8 78.4C129.9 90.5 121.4 101.7 112 112C102.6 122.3 92.2 131.6 80.4 139.3C68.6 146.9 55.6 153 41.9 156.5C28.3 160 14.2 161 0 162L0 0Z" fill="#b3dacd"></path><path d="M121.5 0C118.2 10 114.8 20.1 111.9 30C108.9 39.9 106.3 49.7 101.8 58.8C97.4 67.9 91.1 76.3 84 84C76.9 91.7 69.1 98.7 60.3 104.4C51.5 110.2 41.7 114.7 31.4 117.4C21.2 120 10.6 120.7 0 121.5L0 0Z" fill="#7fc2ad"></path><path d="M81 0C78.8 6.7 76.5 13.4 74.6 20C72.6 26.6 70.9 33.1 67.9 39.2C64.9 45.3 60.7 50.9 56 56C51.3 61.1 46.1 65.8 40.2 69.6C34.3 73.5 27.8 76.5 21 78.2C14.2 80 7.1 80.5 0 81L0 0Z" fill="#44a98e"></path><path d="M40.5 0C39.4 3.3 38.3 6.7 37.3 10C36.3 13.3 35.4 16.6 33.9 19.6C32.5 22.6 30.4 25.4 28 28C25.6 30.6 23 32.9 20.1 34.8C17.2 36.7 13.9 38.2 10.5 39.1C7.1 40 3.5 40.2 0 40.5L0 0Z" fill="#139d7f"></path></g></svg>