<svg id="visual" viewBox="0 0 900 600" width="900" height="600" xmlns="http://www.w3.org/2000/svg" xmlns:xlink="http://www.w3.org/1999/xlink" version="1.1"><rect x="0" y="0" width="900" height="600" fill="#ffffff"></rect><defs><linearGradient id="grad1_0" x1="33.3%" y1="100%" x2="100%" y2="0%"><stop offset="20%" stop-color="#139d7f" stop-opacity="1"></stop><stop offset="80%" stop-color="#139d7f" stop-opacity="1"></stop></linearGradient></defs><defs><linearGradient id="grad1_1" x1="33.3%" y1="100%" x2="100%" y2="0%"><stop offset="20%" stop-color="#139d7f" stop-opacity="1"></stop><stop offset="80%" stop-color="#58b197" stop-opacity="1"></stop></linearGradient></defs><defs><linearGradient id="grad1_2" x1="33.3%" y1="100%" x2="100%" y2="0%"><stop offset="20%" stop-color="#85c4b0" stop-opacity="1"></stop><stop offset="80%" stop-color="#58b197" stop-opacity="1"></stop></linearGradient></defs><defs><linearGradient id="grad1_3" x1="33.3%" y1="100%" x2="100%" y2="0%"><stop offset="20%" stop-color="#85c4b0" stop-opacity="1"></stop><stop offset="80%" stop-color="#aed8ca" stop-opacity="1"></stop></linearGradient></defs><defs><linearGradient id="grad1_4" x1="33.3%" y1="100%" x2="100%" y2="0%"><stop offset="20%" stop-color="#d7ece4" stop-opacity="1"></stop><stop offset="80%" stop-color="#aed8ca" stop-opacity="1"></stop></linearGradient></defs><defs><linearGradient id="grad1_5" x1="33.3%" y1="100%" x2="100%" y2="0%"><stop offset="20%" stop-color="#d7ece4" stop-opacity="1"></stop><stop offset="80%" stop-color="#ffffff" stop-opacity="1"></stop></linearGradient></defs><defs><linearGradient id="grad2_0" x1="0%" y1="100%" x2="66.7%" y2="0%"><stop offset="20%" stop-color="#139d7f" stop-opacity="1"></stop><stop offset="80%" stop-color="#139d7f" stop-opacity="1"></stop></linearGradient></defs><defs><linearGradient id="grad2_1" x1="0%" y1="100%" x2="66.7%" y2="0%"><stop offset="20%" stop-color="#58b197" stop-opacity="1"></stop><stop offset="80%" stop-color="#139d7f" stop-opacity="1"></stop></linearGradient></defs><defs><linearGradient id="grad2_2" x1="0%" y1="100%" x2="66.7%" y2="0%"><stop offset="20%" stop-color="#58b197" stop-opacity="1"></stop><stop offset="80%" stop-color="#85c4b0" stop-opacity="1"></stop></linearGradient></defs><defs><linearGradient id="grad2_3" x1="0%" y1="100%" x2="66.7%" y2="0%"><stop offset="20%" stop-color="#aed8ca" stop-opacity="1"></stop><stop offset="80%" stop-color="#85c4b0" stop-opacity="1"></stop></linearGradient></defs><defs><linearGradient id="grad2_4" x1="0%" y1="100%" x2="66.7%" y2="0%"><stop offset="20%" stop-color="#aed8ca" stop-opacity="1"></stop><stop offset="80%" stop-color="#d7ece4" stop-opacity="1"></stop></linearGradient></defs><defs><linearGradient id="grad2_5" x1="0%" y1="100%" x2="66.7%" y2="0%"><stop offset="20%" stop-color="#ffffff" stop-opacity="1"></stop><stop offset="80%" stop-color="#d7ece4" stop-opacity="1"></stop></linearGradient></defs><g transform="translate(900, 600)"><path d="M-378.6 0C-366.8 -48.9 -355 -97.8 -332.6 -137.8C-310.2 -177.8 -277.2 -208.8 -246.1 -246.1C-214.9 -283.3 -185.6 -326.7 -144.9 -349.8C-104.2 -372.9 -52.1 -375.7 0 -378.6L0 0Z" fill="#ebf5f2"></path><path d="M-315.5 0C-305.7 -40.7 -295.8 -81.5 -277.2 -114.8C-258.5 -148.1 -231 -174 -205.1 -205.1C-179.1 -236.1 -154.7 -272.2 -120.7 -291.5C-86.8 -310.7 -43.4 -313.1 0 -315.5L0 0Z" fill="#c2e2d7"></path><path d="M-252.4 0C-244.5 -32.6 -236.7 -65.2 -221.7 -91.8C-206.8 -118.5 -184.8 -139.2 -164 -164C-143.3 -188.9 -123.7 -217.8 -96.6 -233.2C-69.4 -248.6 -34.7 -250.5 0 -252.4L0 0Z" fill="#9acebd"></path><path d="M-189.3 0C-183.4 -24.4 -177.5 -48.9 -166.3 -68.9C-155.1 -88.9 -138.6 -104.4 -123 -123C-107.5 -141.6 -92.8 -163.3 -72.4 -174.9C-52.1 -186.4 -26 -187.9 0 -189.3L0 0Z" fill="#6fbba4"></path><path d="M-126.2 0C-122.3 -16.3 -118.3 -32.6 -110.9 -45.9C-103.4 -59.3 -92.4 -69.6 -82 -82C-71.6 -94.4 -61.9 -108.9 -48.3 -116.6C-34.7 -124.3 -17.4 -125.2 0 -126.2L0 0Z" fill="#3da78b"></path><path d="M-63.1 0C-61.1 -8.1 -59.2 -16.3 -55.4 -23C-51.7 -29.6 -46.2 -34.8 -41 -41C-35.8 -47.2 -30.9 -54.4 -24.1 -58.3C-17.4 -62.1 -8.7 -62.6 0 -63.1L0 0Z" fill="#139d7f"></path></g><g transform="translate(0, 0)"><path d="M378.6 0C371.3 49 364 98.1 346.5 143.5C328.9 188.9 301.2 230.8 266.6 266.6C232 302.4 190.5 332.1 144.9 349.8C99.3 367.4 49.7 373 0 378.6L0 0Z" fill="#ebf5f2"></path><path d="M315.5 0C309.4 40.9 303.3 81.7 288.7 119.6C274.1 157.5 251 192.3 222.1 222.1C193.3 252 158.7 276.8 120.7 291.5C82.8 306.2 41.4 310.8 0 315.5L0 0Z" fill="#c2e2d7"></path><path d="M252.4 0C247.5 32.7 242.6 65.4 231 95.7C219.3 126 200.8 153.9 177.7 177.7C154.6 201.6 127 221.4 96.6 233.2C66.2 244.9 33.1 248.7 0 252.4L0 0Z" fill="#9acebd"></path><path d="M189.3 0C185.6 24.5 182 49 173.2 71.8C164.5 94.5 150.6 115.4 133.3 133.3C116 151.2 95.2 166.1 72.4 174.9C49.7 183.7 24.8 186.5 0 189.3L0 0Z" fill="#6fbba4"></path><path d="M126.2 0C123.8 16.3 121.3 32.7 115.5 47.8C109.6 63 100.4 76.9 88.9 88.9C77.3 100.8 63.5 110.7 48.3 116.6C33.1 122.5 16.6 124.3 0 126.2L0 0Z" fill="#3da78b"></path><path d="M63.1 0C61.9 8.2 60.7 16.3 57.7 23.9C54.8 31.5 50.2 38.5 44.4 44.4C38.7 50.4 31.7 55.4 24.1 58.3C16.6 61.2 8.3 62.2 0 63.1L0 0Z" fill="#139d7f"></path></g></svg>