<svg id="visual" viewBox="0 0 960 540" width="960" height="540" xmlns="http://www.w3.org/2000/svg" xmlns:xlink="http://www.w3.org/1999/xlink" version="1.1"><path d="M200 0L204.8 12.8C209.7 25.7 219.3 51.3 219.3 77C219.3 102.7 209.7 128.3 199.3 154C189 179.7 178 205.3 173.5 231.2C169 257 171 283 174.7 308.8C178.3 334.7 183.7 360.3 190.3 386C197 411.7 205 437.3 201.7 463C198.3 488.7 183.7 514.3 176.3 527.2L169 540L0 540L0 527.2C0 514.3 0 488.7 0 463C0 437.3 0 411.7 0 386C0 360.3 0 334.7 0 308.8C0 283 0 257 0 231.2C0 205.3 0 179.7 0 154C0 128.3 0 102.7 0 77C0 51.3 0 25.7 0 12.8L0 0Z" fill="#a6e3d6"></path><path d="M146 0L143 12.8C140 25.7 134 51.3 129.2 77C124.3 102.7 120.7 128.3 116.5 154C112.3 179.7 107.7 205.3 106.2 231.2C104.7 257 106.3 283 115.5 308.8C124.7 334.7 141.3 360.3 153.8 386C166.3 411.7 174.7 437.3 174.2 463C173.7 488.7 164.3 514.3 159.7 527.2L155 540L0 540L0 527.2C0 514.3 0 488.7 0 463C0 437.3 0 411.7 0 386C0 360.3 0 334.7 0 308.8C0 283 0 257 0 231.2C0 205.3 0 179.7 0 154C0 128.3 0 102.7 0 77C0 51.3 0 25.7 0 12.8L0 0Z" fill="#7ac7b5"></path><path d="M106 0L100.5 12.8C95 25.7 84 51.3 85.2 77C86.3 102.7 99.7 128.3 99.7 154C99.7 179.7 86.3 205.3 82.3 231.2C78.3 257 83.7 283 91.2 308.8C98.7 334.7 108.3 360.3 107.5 386C106.7 411.7 95.3 437.3 87 463C78.7 488.7 73.3 514.3 70.7 527.2L68 540L0 540L0 527.2C0 514.3 0 488.7 0 463C0 437.3 0 411.7 0 386C0 360.3 0 334.7 0 308.8C0 283 0 257 0 231.2C0 205.3 0 179.7 0 154C0 128.3 0 102.7 0 77C0 51.3 0 25.7 0 12.8L0 0Z" fill="#4dab94"></path><path d="M53 0L57.7 12.8C62.3 25.7 71.7 51.3 69 77C66.3 102.7 51.7 128.3 44.5 154C37.3 179.7 37.7 205.3 45.8 231.2C54 257 70 283 69.3 308.8C68.7 334.7 51.3 360.3 46.8 386C42.3 411.7 50.7 437.3 57.8 463C65 488.7 71 514.3 74 527.2L77 540L0 540L0 527.2C0 514.3 0 488.7 0 463C0 437.3 0 411.7 0 386C0 360.3 0 334.7 0 308.8C0 283 0 257 0 231.2C0 205.3 0 179.7 0 154C0 128.3 0 102.7 0 77C0 51.3 0 25.7 0 12.8L0 0Z" fill="#079073"></path></svg>